<?xml version="1.0" encoding="UTF-8" standalone="no"?>
<!-- Created with Inkscape (http://www.inkscape.org/) -->

<svg
   xmlns:dc="http://purl.org/dc/elements/1.1/"
   xmlns:cc="http://creativecommons.org/ns#"
   xmlns:rdf="http://www.w3.org/1999/02/22-rdf-syntax-ns#"
   xmlns:svg="http://www.w3.org/2000/svg"
   xmlns="http://www.w3.org/2000/svg"
   xmlns:sodipodi="http://sodipodi.sourceforge.net/DTD/sodipodi-0.dtd"
   xmlns:inkscape="http://www.inkscape.org/namespaces/inkscape"
   width="640"
   height="480"
   id="svg2"
   version="1.1"
   inkscape:version="0.48.4 r9939"
   sodipodi:docname="isis_loop.svg">
  <sodipodi:namedview
     id="base"
     pagecolor="#ffffff"
     bordercolor="#666666"
     borderopacity="1.0"
     inkscape:pageopacity="0.0"
     inkscape:pageshadow="2"
     inkscape:zoom="1.3895833"
     inkscape:cx="227.80697"
     inkscape:cy="200.26743"
     inkscape:document-units="px"
     inkscape:current-layer="layer2"
     showgrid="true"
     inkscape:window-width="1600"
     inkscape:window-height="876"
     inkscape:window-x="0"
     inkscape:window-y="0"
     inkscape:window-maximized="1"
     inkscape:object-nodes="true"
     inkscape:snap-bbox="false"
     inkscape:snap-nodes="true"
     inkscape:snap-center="true">
    <inkscape:grid
       spacingy="8px"
       spacingx="8px"
       snapvisiblegridlinesonly="true"
       enabled="true"
       visible="true"
       empspacing="5"
       id="grid2985"
       type="xygrid" />
  </sodipodi:namedview>
  <defs
     id="defs4">
    <marker
       style="overflow:visible"
       id="StopL"
       refX="0.0"
       refY="0.0"
       orient="auto"
       inkscape:stockid="StopL">
      <path
         transform="scale(0.8)"
         style="fill:none;fill-opacity:0.75000000;fill-rule:evenodd;stroke:#000000;stroke-width:1.0pt"
         d="M 0.0,5.65 L 0.0,-5.65"
         id="path4056" />
    </marker>
    <marker
       inkscape:stockid="Arrow2Mend"
       orient="auto"
       refY="0.0"
       refX="0.0"
       id="Arrow2Mend"
       style="overflow:visible;">
      <path
         id="path3914"
         style="fill-rule:evenodd;stroke-width:0.62500000;stroke-linejoin:round;"
         d="M 8.7185878,4.0337352 L -2.2072895,0.016013256 L 8.7185884,-4.0017078 C 6.9730900,-1.6296469 6.9831476,1.6157441 8.7185878,4.0337352 z "
         transform="scale(0.6) rotate(180) translate(0,0)" />
    </marker>
    <marker
       inkscape:stockid="Arrow1Send"
       orient="auto"
       refY="0.0"
       refX="0.0"
       id="Arrow1Send"
       style="overflow:visible;">
      <path
         id="path3902"
         d="M 0.0,0.0 L 5.0,-5.0 L -12.5,0.0 L 5.0,5.0 L 0.0,0.0 z "
         style="fill-rule:evenodd;stroke:#000000;stroke-width:1.0pt;"
         transform="scale(0.2) rotate(180) translate(6,0)" />
    </marker>
    <marker
       style="overflow:visible"
       id="Arrow1Mstart"
       refX="0.0"
       refY="0.0"
       orient="auto"
       inkscape:stockid="Arrow1Mstart">
      <path
         transform="scale(0.4) translate(10,0)"
         style="fill-rule:evenodd;stroke:#000000;stroke-width:1.0pt"
         d="M 0.0,0.0 L 5.0,-5.0 L -12.5,0.0 L 5.0,5.0 L 0.0,0.0 z "
         id="path3954" />
    </marker>
    <marker
       style="overflow:visible;"
       id="Arrow1Mend"
       refX="0.0"
       refY="0.0"
       orient="auto"
       inkscape:stockid="Arrow1Mend">
      <path
         transform="scale(0.4) rotate(180) translate(10,0)"
         style="fill-rule:evenodd;stroke:#000000;stroke-width:1.0pt;"
         d="M 0.0,0.0 L 5.0,-5.0 L -12.5,0.0 L 5.0,5.0 L 0.0,0.0 z "
         id="path3957" />
    </marker>
    <marker
       style="overflow:visible"
       id="Arrow1Mend-5"
       refX="0"
       refY="0"
       orient="auto"
       inkscape:stockid="Arrow1Mend">
      <path
         transform="matrix(-0.4,0,0,-0.4,-4,0)"
         style="fill-rule:evenodd;stroke:#000000;stroke-width:1pt"
         d="M 0,0 5,-5 -12.5,0 5,5 0,0 z"
         id="path3957-6"
         inkscape:connector-curvature="0" />
    </marker>
    <marker
       style="overflow:visible;"
       id="Arrow1Mende"
       refX="0.0"
       refY="0.0"
       orient="auto"
       inkscape:stockid="Arrow1Mende">
      <path
         transform="scale(0.4) rotate(180) translate(10,0)"
         style="stroke:#0000ff;stroke-width:1.0pt;fill:#0000ff;fill-rule:evenodd"
         d="M 0.0,0.0 L 5.0,-5.0 L -12.5,0.0 L 5.0,5.0 L 0.0,0.0 z "
         id="path4816" />
    </marker>
    <marker
       style="overflow:visible"
       id="Arrow1Mende-8"
       refX="0"
       refY="0"
       orient="auto"
       inkscape:stockid="Arrow1Mende">
      <path
         inkscape:connector-curvature="0"
         transform="matrix(-0.4,0,0,-0.4,-4,0)"
         style="fill:#0000ff;fill-rule:evenodd;stroke:#0000ff;stroke-width:1pt"
         d="M 0,0 5,-5 -12.5,0 5,5 0,0 z"
         id="path4816-0" />
    </marker>
    <marker
       style="overflow:visible"
       id="Arrow1Mende-6"
       refX="0"
       refY="0"
       orient="auto"
       inkscape:stockid="Arrow1Mende">
      <path
         inkscape:connector-curvature="0"
         transform="matrix(-0.4,0,0,-0.4,-4,0)"
         style="fill:#0000ff;fill-rule:evenodd;stroke:#0000ff;stroke-width:1pt"
         d="M 0,0 5,-5 -12.5,0 5,5 0,0 z"
         id="path4816-7" />
    </marker>
    <marker
       style="overflow:visible"
       id="Arrow1Mende-4"
       refX="0"
       refY="0"
       orient="auto"
       inkscape:stockid="Arrow1Mende">
      <path
         inkscape:connector-curvature="0"
         transform="matrix(-0.4,0,0,-0.4,-4,0)"
         style="fill:#0000ff;fill-rule:evenodd;stroke:#0000ff;stroke-width:1pt"
         d="M 0,0 5,-5 -12.5,0 5,5 0,0 z"
         id="path4816-3" />
    </marker>
    <marker
       style="overflow:visible"
       id="Arrow1Mend-53"
       refX="0"
       refY="0"
       orient="auto"
       inkscape:stockid="Arrow1Mend">
      <path
         inkscape:connector-curvature="0"
         transform="matrix(-0.4,0,0,-0.4,-4,0)"
         style="fill-rule:evenodd;stroke:#000000;stroke-width:1pt"
         d="M 0,0 5,-5 -12.5,0 5,5 0,0 z"
         id="path3957-7" />
    </marker>
    <marker
       inkscape:stockid="Arrow2MendD"
       orient="auto"
       refY="0.0"
       refX="0.0"
       id="Arrow2MendD"
       style="overflow:visible;">
      <path
         id="path4570"
         style="stroke-linejoin:round;stroke:#0000ff;stroke-width:0.62500000;fill:#0000ff;fill-rule:evenodd"
         d="M 8.7185878,4.0337352 L -2.2072895,0.016013256 L 8.7185884,-4.0017078 C 6.9730900,-1.6296469 6.9831476,1.6157441 8.7185878,4.0337352 z "
         transform="scale(0.6) rotate(180) translate(0,0)" />
    </marker>
    <marker
       inkscape:stockid="Arrow2MendD"
       orient="auto"
       refY="0"
       refX="0"
       id="Arrow2MendD-3"
       style="overflow:visible">
      <path
         id="path4570-3"
         style="fill:#0000ff;fill-rule:evenodd;stroke:#0000ff;stroke-width:0.625;stroke-linejoin:round"
         d="M 8.7185878,4.0337352 -2.2072895,0.01601326 8.7185884,-4.0017078 c -1.7454984,2.3720609 -1.7354408,5.6174519 -6e-7,8.035443 z"
         transform="scale(-0.6,-0.6)"
         inkscape:connector-curvature="0" />
    </marker>
    <marker
       inkscape:stockid="Arrow2Mendd"
       orient="auto"
       refY="0.0"
       refX="0.0"
       id="Arrow2Mendd"
       style="overflow:visible;">
      <path
         id="path5088"
         style="stroke-linejoin:round;stroke:#0000ff;stroke-width:0.62500000;fill:#0000ff;fill-rule:evenodd"
         d="M 8.7185878,4.0337352 L -2.2072895,0.016013256 L 8.7185884,-4.0017078 C 6.9730900,-1.6296469 6.9831476,1.6157441 8.7185878,4.0337352 z "
         transform="scale(0.6) rotate(180) translate(0,0)" />
    </marker>
    <marker
       inkscape:stockid="Arrow2Mendd"
       orient="auto"
       refY="0"
       refX="0"
       id="Arrow2Mendd-0"
       style="overflow:visible">
      <path
         inkscape:connector-curvature="0"
         id="path5088-9"
         style="fill:#0000ff;fill-rule:evenodd;stroke:#0000ff;stroke-width:0.625;stroke-linejoin:round"
         d="M 8.7185878,4.0337352 -2.2072895,0.01601326 8.7185884,-4.0017078 c -1.7454984,2.3720609 -1.7354408,5.6174519 -6e-7,8.035443 z"
         transform="scale(-0.6,-0.6)" />
    </marker>
    <marker
       inkscape:stockid="Arrow2Mendd"
       orient="auto"
       refY="0"
       refX="0"
       id="Arrow2Mendd-6"
       style="overflow:visible">
      <path
         inkscape:connector-curvature="0"
         id="path5088-7"
         style="fill:#0000ff;fill-rule:evenodd;stroke:#0000ff;stroke-width:0.625;stroke-linejoin:round"
         d="M 8.7185878,4.0337352 -2.2072895,0.01601326 8.7185884,-4.0017078 c -1.7454984,2.3720609 -1.7354408,5.6174519 -6e-7,8.035443 z"
         transform="scale(-0.6,-0.6)" />
    </marker>
    <marker
       inkscape:stockid="Arrow2Menddn"
       orient="auto"
       refY="0.0"
       refX="0.0"
       id="Arrow2Menddn"
       style="overflow:visible;">
      <path
         id="path5233"
         style="stroke-linejoin:round;fill-rule:evenodd;stroke:#c00000;stroke-width:0.62500000;fill:#c00000"
         d="M 8.7185878,4.0337352 L -2.2072895,0.016013256 L 8.7185884,-4.0017078 C 6.9730900,-1.6296469 6.9831476,1.6157441 8.7185878,4.0337352 z "
         transform="scale(0.6) rotate(180) translate(0,0)" />
    </marker>
    <marker
       inkscape:stockid="Arrow2Menddx"
       orient="auto"
       refY="0.0"
       refX="0.0"
       id="Arrow2Menddx"
       style="overflow:visible;">
      <path
         id="path5236"
         style="stroke-linejoin:round;fill-rule:evenodd;stroke:#00c000;stroke-width:0.62500000;fill:#00c000"
         d="M 8.7185878,4.0337352 L -2.2072895,0.016013256 L 8.7185884,-4.0017078 C 6.9730900,-1.6296469 6.9831476,1.6157441 8.7185878,4.0337352 z "
         transform="scale(0.6) rotate(180) translate(0,0)" />
    </marker>
    <marker
       inkscape:stockid="Arrow2MenddF"
       orient="auto"
       refY="0.0"
       refX="0.0"
       id="Arrow2MenddF"
       style="overflow:visible;">
      <path
         id="path5239"
         style="stroke-linejoin:round;fill-rule:evenodd;stroke:#00c000;stroke-width:0.62500000;fill:#00c000"
         d="M 8.7185878,4.0337352 L -2.2072895,0.016013256 L 8.7185884,-4.0017078 C 6.9730900,-1.6296469 6.9831476,1.6157441 8.7185878,4.0337352 z "
         transform="scale(0.6) rotate(180) translate(0,0)" />
    </marker>
    <marker
       inkscape:stockid="Arrow2MenddF"
       orient="auto"
       refY="0"
       refX="0"
       id="Arrow2MenddF-7"
       style="overflow:visible">
      <path
         id="path5239-3"
         style="fill:#00c000;fill-rule:evenodd;stroke:#00c000;stroke-width:0.625;stroke-linejoin:round"
         d="M 8.7185878,4.0337352 -2.2072895,0.01601326 8.7185884,-4.0017078 c -1.7454984,2.3720609 -1.7354408,5.6174519 -6e-7,8.035443 z"
         transform="scale(-0.6,-0.6)"
         inkscape:connector-curvature="0" />
    </marker>
    <marker
       inkscape:stockid="Arrow2Menddn"
       orient="auto"
       refY="0"
       refX="0"
       id="Arrow2Menddn-7"
       style="overflow:visible">
      <path
         id="path5233-3"
         style="fill:#c00000;fill-rule:evenodd;stroke:#c00000;stroke-width:0.625;stroke-linejoin:round"
         d="M 8.7185878,4.0337352 -2.2072895,0.01601326 8.7185884,-4.0017078 c -1.7454984,2.3720609 -1.7354408,5.6174519 -6e-7,8.035443 z"
         transform="scale(-0.6,-0.6)"
         inkscape:connector-curvature="0" />
    </marker>
    <marker
       inkscape:stockid="Arrow2MenddF"
       orient="auto"
       refY="0"
       refX="0"
       id="Arrow2MenddF-8"
       style="overflow:visible">
      <path
         id="path5239-7"
         style="fill:#00c000;fill-rule:evenodd;stroke:#00c000;stroke-width:0.625;stroke-linejoin:round"
         d="M 8.7185878,4.0337352 -2.2072895,0.01601326 8.7185884,-4.0017078 c -1.7454984,2.3720609 -1.7354408,5.6174519 -6e-7,8.035443 z"
         transform="scale(-0.6,-0.6)"
         inkscape:connector-curvature="0" />
    </marker>
    <marker
       inkscape:stockid="Arrow2Menddn"
       orient="auto"
       refY="0"
       refX="0"
       id="Arrow2Menddn-1"
       style="overflow:visible">
      <path
         id="path5233-2"
         style="fill:#c00000;fill-rule:evenodd;stroke:#c00000;stroke-width:0.625;stroke-linejoin:round"
         d="M 8.7185878,4.0337352 -2.2072895,0.01601326 8.7185884,-4.0017078 c -1.7454984,2.3720609 -1.7354408,5.6174519 -6e-7,8.035443 z"
         transform="scale(-0.6,-0.6)"
         inkscape:connector-curvature="0" />
    </marker>
    <marker
       style="overflow:visible"
       id="StopLI"
       refX="0.0"
       refY="0.0"
       orient="auto"
       inkscape:stockid="StopLI">
      <path
         transform="scale(0.8)"
         style="stroke-width:1.0pt;fill-rule:evenodd;stroke:#00c000;fill-opacity:0.75000000;fill:none"
         d="M 0.0,5.65 L 0.0,-5.65"
         id="path6160" />
    </marker>
    <marker
       inkscape:stockid="Arrow2MenddF"
       orient="auto"
       refY="0"
       refX="0"
       id="Arrow2MenddF-9"
       style="overflow:visible">
      <path
         inkscape:connector-curvature="0"
         id="path5239-71"
         style="fill:#00c000;fill-rule:evenodd;stroke:#00c000;stroke-width:0.625;stroke-linejoin:round"
         d="M 8.7185878,4.0337352 -2.2072895,0.01601326 8.7185884,-4.0017078 c -1.7454984,2.3720609 -1.7354408,5.6174519 -6e-7,8.035443 z"
         transform="scale(-0.6,-0.6)" />
    </marker>
    <marker
       inkscape:stockid="Arrow2MenddF"
       orient="auto"
       refY="0"
       refX="0"
       id="Arrow2MenddF-0"
       style="overflow:visible">
      <path
         inkscape:connector-curvature="0"
         id="path5239-8"
         style="fill:#00c000;fill-rule:evenodd;stroke:#00c000;stroke-width:0.625;stroke-linejoin:round"
         d="M 8.7185878,4.0337352 -2.2072895,0.01601326 8.7185884,-4.0017078 c -1.7454984,2.3720609 -1.7354408,5.6174519 -6e-7,8.035443 z"
         transform="scale(-0.6,-0.6)" />
    </marker>
    <marker
       inkscape:stockid="Arrow2MenddF"
       orient="auto"
       refY="0"
       refX="0"
       id="Arrow2MenddF-1"
       style="overflow:visible">
      <path
         inkscape:connector-curvature="0"
         id="path5239-4"
         style="fill:#00c000;fill-rule:evenodd;stroke:#00c000;stroke-width:0.625;stroke-linejoin:round"
         d="M 8.7185878,4.0337352 -2.2072895,0.01601326 8.7185884,-4.0017078 c -1.7454984,2.3720609 -1.7354408,5.6174519 -6e-7,8.035443 z"
         transform="scale(-0.6,-0.6)" />
    </marker>
    <marker
       inkscape:stockid="Arrow2MenddF"
       orient="auto"
       refY="0"
       refX="0"
       id="Arrow2MenddF-4"
       style="overflow:visible">
      <path
         inkscape:connector-curvature="0"
         id="path5239-5"
         style="fill:#00c000;fill-rule:evenodd;stroke:#00c000;stroke-width:0.625;stroke-linejoin:round"
         d="M 8.7185878,4.0337352 -2.2072895,0.01601326 8.7185884,-4.0017078 c -1.7454984,2.3720609 -1.7354408,5.6174519 -6e-7,8.035443 z"
         transform="scale(-0.6,-0.6)" />
    </marker>
  </defs>
  <metadata
     id="metadata7">
    <rdf:RDF>
      <cc:Work
         rdf:about="">
        <dc:format>image/svg+xml</dc:format>
        <dc:type
           rdf:resource="http://purl.org/dc/dcmitype/StillImage" />
        <dc:title />
      </cc:Work>
    </rdf:RDF>
  </metadata>
  <g
     style="display:none"
     inkscape:label="problem"
     id="layer3"
     inkscape:groupmode="layer">
    <path
       inkscape:connector-curvature="0"
       id="path4853-9"
       d="m 208,272 c 16,16 48,16 64,0"
       style="fill:none;stroke:#00c000;stroke-width:3;stroke-linecap:butt;stroke-linejoin:miter;stroke-miterlimit:4;stroke-opacity:1;stroke-dasharray:none;marker-end:url(#Arrow2MenddF)"
       sodipodi:nodetypes="cc" />
    <path
       inkscape:connector-curvature="0"
       id="path4853-9-0"
       d="m 272,240 c -16,-16 -48,-16 -64,0"
       style="fill:none;stroke:#c00000;stroke-width:3;stroke-linecap:butt;stroke-linejoin:miter;stroke-miterlimit:4;stroke-opacity:1;stroke-dasharray:none;marker-end:url(#Arrow2Menddn)"
       sodipodi:nodetypes="cc" />
    <path
       sodipodi:nodetypes="cccc"
       inkscape:connector-curvature="0"
       id="path4826-5-3"
       d="m 192,256 48,-64 96,0 48,64"
       style="fill:none;stroke:#cccccc;stroke-width:3;stroke-linecap:butt;stroke-linejoin:miter;stroke-miterlimit:4;stroke-opacity:1;stroke-dasharray:none" />
    <path
       transform="translate(128,0)"
       d="m 128,192 a 16,16 0 1 1 -32,0 16,16 0 1 1 32,0 z"
       sodipodi:ry="16"
       sodipodi:rx="16"
       sodipodi:cy="192"
       sodipodi:cx="112"
       id="path4768-9-1-5"
       style="fill:#e1ffe1;fill-opacity:1;stroke:#cccccc;stroke-width:3;stroke-linecap:round;stroke-linejoin:round;stroke-miterlimit:4;stroke-opacity:1;stroke-dasharray:none;stroke-dashoffset:0"
       sodipodi:type="arc" />
    <path
       transform="translate(224,0)"
       d="m 128,192 a 16,16 0 1 1 -32,0 16,16 0 1 1 32,0 z"
       sodipodi:ry="16"
       sodipodi:rx="16"
       sodipodi:cy="192"
       sodipodi:cx="112"
       id="path4768-4-9-1"
       style="fill:#e1ffe1;fill-opacity:1;stroke:#cccccc;stroke-width:3;stroke-linecap:round;stroke-linejoin:round;stroke-miterlimit:4;stroke-opacity:1;stroke-dasharray:none;stroke-dashoffset:0"
       sodipodi:type="arc" />
  </g>
  <g
     style="display:inline"
     inkscape:label="solve_mt"
     id="layer2"
     inkscape:groupmode="layer">
    <path
       sodipodi:nodetypes="cccc"
       inkscape:connector-curvature="0"
       id="path4826-5-5"
       d="m 192,256 48,-64 96,0 48,64"
       style="fill:none;stroke:#000000;stroke-width:3;stroke-linecap:butt;stroke-linejoin:miter;stroke-miterlimit:4;stroke-opacity:1;stroke-dasharray:none" />
    <path
       transform="translate(128,0)"
       d="m 128,192 a 16,16 0 1 1 -32,0 16,16 0 1 1 32,0 z"
       sodipodi:ry="16"
       sodipodi:rx="16"
       sodipodi:cy="192"
       sodipodi:cx="112"
       id="path4768-9-1-0"
       style="fill:#01ff01;fill-opacity:1;stroke:#000000;stroke-width:3;stroke-linecap:round;stroke-linejoin:round;stroke-miterlimit:4;stroke-opacity:1;stroke-dasharray:none;stroke-dashoffset:0"
       sodipodi:type="arc" />
    <path
       transform="translate(224,0)"
       d="m 128,192 a 16,16 0 1 1 -32,0 16,16 0 1 1 32,0 z"
       sodipodi:ry="16"
       sodipodi:rx="16"
       sodipodi:cy="192"
       sodipodi:cx="112"
       id="path4768-4-9-0"
       style="fill:#01ff01;fill-opacity:1;stroke:#000000;stroke-width:3;stroke-linecap:round;stroke-linejoin:round;stroke-miterlimit:4;stroke-opacity:1;stroke-dasharray:none;stroke-dashoffset:0"
       sodipodi:type="arc" />
    <path
       inkscape:connector-curvature="0"
       id="path4853-9-08"
       d="m 192,232 24,-32"
       style="fill:none;stroke:#00c000;stroke-width:3;stroke-linecap:butt;stroke-linejoin:miter;stroke-miterlimit:4;stroke-opacity:1;stroke-dasharray:none;marker-end:url(#Arrow2MenddF);display:inline"
       sodipodi:nodetypes="cc" />
    <path
       inkscape:connector-curvature="0"
       id="path4853-9-08-8"
       d="M 359.05385,199.07423 384,232"
       style="fill:none;stroke:#00c000;stroke-width:3;stroke-linecap:butt;stroke-linejoin:miter;stroke-miterlimit:4;stroke-opacity:1;stroke-dasharray:none;marker-end:url(#Arrow2MenddF);display:inline"
       sodipodi:nodetypes="cc" />
    <path
       inkscape:connector-curvature="0"
       id="path4853-9-08-3"
       d="m 254.48219,176.02882 64,0"
       style="fill:none;stroke:#00c000;stroke-width:3;stroke-linecap:butt;stroke-linejoin:miter;stroke-miterlimit:4;stroke-opacity:1;stroke-dasharray:none;marker-end:url(#Arrow2MenddF);display:inline"
       sodipodi:nodetypes="cc" />
    <path
       inkscape:connector-curvature="0"
       id="path4853-9-08-3-4"
       d="m 400,240 64,0"
       style="fill:none;stroke:#00c000;stroke-width:3;stroke-linecap:butt;stroke-linejoin:miter;stroke-miterlimit:4;stroke-opacity:1;stroke-dasharray:none;marker-end:url(#Arrow2MenddF);display:inline"
       sodipodi:nodetypes="cc" />
  </g>
  <g
     inkscape:label="solve_ur"
     id="layer4"
     inkscape:groupmode="layer"
     style="display:none">
    <path
       inkscape:connector-curvature="0"
       id="path4853-9-3"
       d="m 208,272 32,0 0,32"
       style="fill:none;stroke:#00c000;stroke-width:3;stroke-linecap:butt;stroke-linejoin:miter;stroke-miterlimit:4;stroke-opacity:1;stroke-dasharray:none;marker-end:url(#StopLI)"
       sodipodi:nodetypes="ccc" />
    <path
       sodipodi:nodetypes="cccc"
       inkscape:connector-curvature="0"
       id="path4826-5"
       d="m 192,256 48,-64 96,0 48,64"
       style="fill:none;stroke:#cccccc;stroke-width:3;stroke-linecap:butt;stroke-linejoin:miter;stroke-miterlimit:4;stroke-opacity:1;stroke-dasharray:none" />
    <path
       transform="translate(128,0)"
       d="m 128,192 a 16,16 0 1 1 -32,0 16,16 0 1 1 32,0 z"
       sodipodi:ry="16"
       sodipodi:rx="16"
       sodipodi:cy="192"
       sodipodi:cx="112"
       id="path4768-9-1"
       style="fill:#e1ffe1;fill-opacity:1;stroke:#cccccc;stroke-width:3;stroke-linecap:round;stroke-linejoin:round;stroke-miterlimit:4;stroke-opacity:1;stroke-dasharray:none;stroke-dashoffset:0"
       sodipodi:type="arc" />
    <path
       transform="translate(224,0)"
       d="m 128,192 a 16,16 0 1 1 -32,0 16,16 0 1 1 32,0 z"
       sodipodi:ry="16"
       sodipodi:rx="16"
       sodipodi:cy="192"
       sodipodi:cx="112"
       id="path4768-4-9"
       style="fill:#e1ffe1;fill-opacity:1;stroke:#cccccc;stroke-width:3;stroke-linecap:round;stroke-linejoin:round;stroke-miterlimit:4;stroke-opacity:1;stroke-dasharray:none;stroke-dashoffset:0"
       sodipodi:type="arc" />
  </g>
  <g
     transform="translate(0,-572.36218)"
     id="layer1"
     inkscape:groupmode="layer"
     inkscape:label="Layer 1">
    <text
       sodipodi:linespacing="110%"
       id="text2987-6"
       y="940.36218"
       x="304"
       style="font-size:32px;font-style:normal;font-variant:normal;font-weight:normal;font-stretch:normal;text-align:end;line-height:110.00000238%;letter-spacing:0px;word-spacing:0px;writing-mode:lr-tb;text-anchor:end;fill:#000000;fill-opacity:1;stroke:none;font-family:Bliss;-inkscape-font-specification:Bliss"
       xml:space="preserve"><tspan
         id="tspan2991-3"
         y="940.36218"
         x="304"
         sodipodi:role="line">2001:db8::/32</tspan><tspan
         id="tspan3940"
         y="975.56219"
         x="304"
         sodipodi:role="line">src 2001:db8:1::/48</tspan></text>
    <path
       sodipodi:nodetypes="cc"
       inkscape:connector-curvature="0"
       id="path4826-9"
       d="m 480,828.36218 32,80"
       style="fill:none;stroke:#000000;stroke-width:3;stroke-linecap:butt;stroke-linejoin:miter;stroke-miterlimit:4;stroke-opacity:1;stroke-dasharray:none" />
    <path
       sodipodi:nodetypes="cc"
       inkscape:connector-curvature="0"
       id="path4826-7"
       d="m 160,908.36218 32,-80"
       style="fill:none;stroke:#000000;stroke-width:3;stroke-linecap:butt;stroke-linejoin:miter;stroke-miterlimit:4;stroke-opacity:1;stroke-dasharray:none" />
    <path
       inkscape:connector-curvature="0"
       id="path4826"
       d="m 192,828.36218 288,0"
       style="fill:none;stroke:#000000;stroke-width:3;stroke-linecap:butt;stroke-linejoin:miter;stroke-miterlimit:4;stroke-opacity:1;stroke-dasharray:none" />
    <path
       transform="translate(80,636.36218)"
       d="m 128,192 c 0,8.83656 -7.16344,16 -16,16 -8.83656,0 -16,-7.16344 -16,-16 0,-8.83656 7.16344,-16 16,-16 8.83656,0 16,7.16344 16,16 z"
       sodipodi:ry="16"
       sodipodi:rx="16"
       sodipodi:cy="192"
       sodipodi:cx="112"
       id="path4768"
       style="fill:#00ff00;fill-opacity:1;stroke:#000000;stroke-width:3;stroke-linecap:round;stroke-linejoin:round;stroke-miterlimit:4;stroke-opacity:1;stroke-dasharray:none;stroke-dashoffset:0"
       sodipodi:type="arc" />
    <text
       sodipodi:linespacing="110%"
       id="text2987-6-7"
       y="940.36218"
       x="368"
       style="font-size:32px;font-style:normal;font-variant:normal;font-weight:normal;font-stretch:normal;text-align:start;line-height:110.00000238%;letter-spacing:0px;word-spacing:0px;writing-mode:lr-tb;text-anchor:start;fill:#000000;fill-opacity:1;stroke:none;font-family:Bliss;-inkscape-font-specification:Bliss"
       xml:space="preserve"><tspan
         id="tspan2991-3-6"
         y="940.36218"
         x="368"
         sodipodi:role="line">2001:db8::/32</tspan><tspan
         id="tspan3940-5"
         y="975.56219"
         x="368"
         sodipodi:role="line">src 2001:db8:2::/48</tspan></text>
    <path
       transform="translate(176,636.36218)"
       d="m 128,192 c 0,8.83656 -7.16344,16 -16,16 -8.83656,0 -16,-7.16344 -16,-16 0,-8.83656 7.16344,-16 16,-16 8.83656,0 16,7.16344 16,16 z"
       sodipodi:ry="16"
       sodipodi:rx="16"
       sodipodi:cy="192"
       sodipodi:cx="112"
       id="path4768-5"
       style="fill:#ff0000;fill-opacity:1;stroke:#000000;stroke-width:3;stroke-linecap:round;stroke-linejoin:round;stroke-miterlimit:4;stroke-opacity:1;stroke-dasharray:none;stroke-dashoffset:0"
       sodipodi:type="arc" />
    <path
       transform="translate(272,636.36218)"
       d="m 128,192 c 0,8.83656 -7.16344,16 -16,16 -8.83656,0 -16,-7.16344 -16,-16 0,-8.83656 7.16344,-16 16,-16 8.83656,0 16,7.16344 16,16 z"
       sodipodi:ry="16"
       sodipodi:rx="16"
       sodipodi:cy="192"
       sodipodi:cx="112"
       id="path4768-9"
       style="fill:#00ff00;fill-opacity:1;stroke:#000000;stroke-width:3;stroke-linecap:round;stroke-linejoin:round;stroke-miterlimit:4;stroke-opacity:1;stroke-dasharray:none;stroke-dashoffset:0"
       sodipodi:type="arc" />
    <path
       transform="translate(368,636.36218)"
       d="m 128,192 c 0,8.83656 -7.16344,16 -16,16 -8.83656,0 -16,-7.16344 -16,-16 0,-8.83656 7.16344,-16 16,-16 8.83656,0 16,7.16344 16,16 z"
       sodipodi:ry="16"
       sodipodi:rx="16"
       sodipodi:cy="192"
       sodipodi:cx="112"
       id="path4768-4"
       style="fill:#00ff00;fill-opacity:1;stroke:#000000;stroke-width:3;stroke-linecap:round;stroke-linejoin:round;stroke-miterlimit:4;stroke-opacity:1;stroke-dasharray:none;stroke-dashoffset:0"
       sodipodi:type="arc" />
    <path
       inkscape:connector-curvature="0"
       id="path4853"
       d="m 128,716.36218 c 0,48 16,64 48,96"
       style="fill:none;stroke:#00c000;stroke-width:3;stroke-linecap:butt;stroke-linejoin:miter;stroke-miterlimit:4;stroke-opacity:1;stroke-dasharray:none;marker-end:url(#Arrow2Menddx)"
       sodipodi:nodetypes="cc" />
    <text
       sodipodi:linespacing="110%"
       id="text2987-6-5"
       y="668.36218"
       x="320"
       style="font-size:32px;font-style:normal;font-variant:normal;font-weight:normal;font-stretch:normal;text-align:end;line-height:110.00000238%;letter-spacing:0px;word-spacing:0px;writing-mode:lr-tb;text-anchor:end;fill:#000000;fill-opacity:1;stroke:none;font-family:Bliss;-inkscape-font-specification:Bliss"
       xml:space="preserve"><tspan
         id="tspan2991-3-5"
         y="668.36218"
         x="320"
         sodipodi:role="line">packet dst 2001:db8::1</tspan><tspan
         id="tspan3940-3"
         y="703.56219"
         x="320"
         sodipodi:role="line">src 2001:db8:2::1</tspan></text>
  </g>
</svg>
