<?xml version="1.0" encoding="UTF-8" standalone="no"?>
<!-- Created with Inkscape (http://www.inkscape.org/) -->

<svg
   xmlns:dc="http://purl.org/dc/elements/1.1/"
   xmlns:cc="http://creativecommons.org/ns#"
   xmlns:rdf="http://www.w3.org/1999/02/22-rdf-syntax-ns#"
   xmlns:svg="http://www.w3.org/2000/svg"
   xmlns="http://www.w3.org/2000/svg"
   xmlns:sodipodi="http://sodipodi.sourceforge.net/DTD/sodipodi-0.dtd"
   xmlns:inkscape="http://www.inkscape.org/namespaces/inkscape"
   width="169.30701"
   height="110.90002"
   id="svg2"
   version="1.1"
   inkscape:version="0.48.5 r10040"
   sodipodi:docname="isis_93_p2mplink.svg">
  <sodipodi:namedview
     id="base"
     pagecolor="#ffffff"
     bordercolor="#666666"
     borderopacity="1.0"
     inkscape:pageopacity="0.0"
     inkscape:pageshadow="2"
     inkscape:zoom="2.0784243"
     inkscape:cx="176.83307"
     inkscape:cy="65.147516"
     inkscape:document-units="px"
     inkscape:current-layer="layer1"
     showgrid="true"
     inkscape:window-width="1600"
     inkscape:window-height="849"
     inkscape:window-x="0"
     inkscape:window-y="0"
     inkscape:window-maximized="1"
     inkscape:object-nodes="true"
     inkscape:snap-bbox="false"
     inkscape:snap-nodes="true"
     inkscape:snap-center="true"
     fit-margin-top="0"
     fit-margin-left="0"
     fit-margin-right="0"
     fit-margin-bottom="0">
    <inkscape:grid
       originy="-151.5px"
       originx="-111.131px"
       type="xygrid"
       id="grid2985"
       empspacing="5"
       visible="true"
       enabled="true"
       snapvisiblegridlinesonly="true"
       spacingx="8px"
       spacingy="8px" />
  </sodipodi:namedview>
  <defs
     id="defs4">
    <marker
       style="overflow:visible"
       id="StopM"
       refX="0"
       refY="0"
       orient="auto"
       inkscape:stockid="StopM">
      <path
         inkscape:connector-curvature="0"
         transform="scale(0.4,0.4)"
         style="fill:none;stroke:#000000;stroke-width:1pt"
         d="M 0,5.65 0,-5.65"
         id="path5019" />
    </marker>
    <marker
       inkscape:stockid="StopL"
       orient="auto"
       refY="0"
       refX="0"
       id="StopL"
       style="overflow:visible">
      <path
         inkscape:connector-curvature="0"
         id="path4056"
         d="M 0,5.65 0,-5.65"
         style="fill:none;stroke:#000000;stroke-width:1pt"
         transform="scale(0.8,0.8)" />
    </marker>
    <marker
       style="overflow:visible"
       id="Arrow2Mend"
       refX="0"
       refY="0"
       orient="auto"
       inkscape:stockid="Arrow2Mend">
      <path
         inkscape:connector-curvature="0"
         transform="scale(-0.6,-0.6)"
         d="M 8.7185878,4.0337352 -2.2072895,0.01601326 8.7185884,-4.0017078 c -1.7454984,2.3720609 -1.7354408,5.6174519 -6e-7,8.035443 z"
         style="fill-rule:evenodd;stroke-width:0.625;stroke-linejoin:round"
         id="path3914" />
    </marker>
    <marker
       style="overflow:visible"
       id="Arrow1Send"
       refX="0"
       refY="0"
       orient="auto"
       inkscape:stockid="Arrow1Send">
      <path
         inkscape:connector-curvature="0"
         transform="matrix(-0.2,0,0,-0.2,-1.2,0)"
         style="fill-rule:evenodd;stroke:#000000;stroke-width:1pt"
         d="M 0,0 5,-5 -12.5,0 5,5 0,0 z"
         id="path3902" />
    </marker>
    <marker
       inkscape:stockid="Arrow1Mstart"
       orient="auto"
       refY="0"
       refX="0"
       id="Arrow1Mstart"
       style="overflow:visible">
      <path
         inkscape:connector-curvature="0"
         id="path3954"
         d="M 0,0 5,-5 -12.5,0 5,5 0,0 z"
         style="fill-rule:evenodd;stroke:#000000;stroke-width:1pt"
         transform="matrix(0.4,0,0,0.4,4,0)" />
    </marker>
    <marker
       inkscape:stockid="Arrow1Mend"
       orient="auto"
       refY="0"
       refX="0"
       id="Arrow1Mend"
       style="overflow:visible">
      <path
         inkscape:connector-curvature="0"
         id="path3957"
         d="M 0,0 5,-5 -12.5,0 5,5 0,0 z"
         style="fill-rule:evenodd;stroke:#000000;stroke-width:1pt"
         transform="matrix(-0.4,0,0,-0.4,-4,0)" />
    </marker>
    <marker
       inkscape:stockid="Arrow1Mend"
       orient="auto"
       refY="0"
       refX="0"
       id="Arrow1Mend-5"
       style="overflow:visible">
      <path
         inkscape:connector-curvature="0"
         id="path3957-6"
         d="M 0,0 5,-5 -12.5,0 5,5 0,0 z"
         style="fill-rule:evenodd;stroke:#000000;stroke-width:1pt"
         transform="matrix(-0.4,0,0,-0.4,-4,0)" />
    </marker>
    <marker
       inkscape:stockid="Arrow1Mende"
       orient="auto"
       refY="0"
       refX="0"
       id="Arrow1Mende"
       style="overflow:visible">
      <path
         inkscape:connector-curvature="0"
         id="path4816"
         d="M 0,0 5,-5 -12.5,0 5,5 0,0 z"
         style="fill:#0000ff;fill-rule:evenodd;stroke:#0000ff;stroke-width:1pt"
         transform="matrix(-0.4,0,0,-0.4,-4,0)" />
    </marker>
    <marker
       inkscape:stockid="Arrow1Mende"
       orient="auto"
       refY="0"
       refX="0"
       id="Arrow1Mende-8"
       style="overflow:visible">
      <path
         id="path4816-0"
         d="M 0,0 5,-5 -12.5,0 5,5 0,0 z"
         style="fill:#0000ff;fill-rule:evenodd;stroke:#0000ff;stroke-width:1pt"
         transform="matrix(-0.4,0,0,-0.4,-4,0)"
         inkscape:connector-curvature="0" />
    </marker>
    <marker
       inkscape:stockid="Arrow1Mende"
       orient="auto"
       refY="0"
       refX="0"
       id="Arrow1Mende-6"
       style="overflow:visible">
      <path
         id="path4816-7"
         d="M 0,0 5,-5 -12.5,0 5,5 0,0 z"
         style="fill:#0000ff;fill-rule:evenodd;stroke:#0000ff;stroke-width:1pt"
         transform="matrix(-0.4,0,0,-0.4,-4,0)"
         inkscape:connector-curvature="0" />
    </marker>
    <marker
       inkscape:stockid="Arrow1Mende"
       orient="auto"
       refY="0"
       refX="0"
       id="Arrow1Mende-4"
       style="overflow:visible">
      <path
         id="path4816-3"
         d="M 0,0 5,-5 -12.5,0 5,5 0,0 z"
         style="fill:#0000ff;fill-rule:evenodd;stroke:#0000ff;stroke-width:1pt"
         transform="matrix(-0.4,0,0,-0.4,-4,0)"
         inkscape:connector-curvature="0" />
    </marker>
    <marker
       inkscape:stockid="Arrow1Mend"
       orient="auto"
       refY="0"
       refX="0"
       id="Arrow1Mend-53"
       style="overflow:visible">
      <path
         id="path3957-7"
         d="M 0,0 5,-5 -12.5,0 5,5 0,0 z"
         style="fill-rule:evenodd;stroke:#000000;stroke-width:1pt"
         transform="matrix(-0.4,0,0,-0.4,-4,0)"
         inkscape:connector-curvature="0" />
    </marker>
    <marker
       style="overflow:visible"
       id="Arrow2MendD"
       refX="0"
       refY="0"
       orient="auto"
       inkscape:stockid="Arrow2MendD">
      <path
         inkscape:connector-curvature="0"
         transform="scale(-0.6,-0.6)"
         d="M 8.7185878,4.0337352 -2.2072895,0.01601326 8.7185884,-4.0017078 c -1.7454984,2.3720609 -1.7354408,5.6174519 -6e-7,8.035443 z"
         style="fill:#0000ff;fill-rule:evenodd;stroke:#0000ff;stroke-width:0.625;stroke-linejoin:round"
         id="path4570" />
    </marker>
    <marker
       style="overflow:visible"
       id="Arrow2MendD-3"
       refX="0"
       refY="0"
       orient="auto"
       inkscape:stockid="Arrow2MendD">
      <path
         inkscape:connector-curvature="0"
         transform="scale(-0.6,-0.6)"
         d="M 8.7185878,4.0337352 -2.2072895,0.01601326 8.7185884,-4.0017078 c -1.7454984,2.3720609 -1.7354408,5.6174519 -6e-7,8.035443 z"
         style="fill:#0000ff;fill-rule:evenodd;stroke:#0000ff;stroke-width:0.625;stroke-linejoin:round"
         id="path4570-3" />
    </marker>
    <marker
       style="overflow:visible"
       id="Arrow2Mendd"
       refX="0"
       refY="0"
       orient="auto"
       inkscape:stockid="Arrow2Mendd">
      <path
         inkscape:connector-curvature="0"
         transform="scale(-0.6,-0.6)"
         d="M 8.7185878,4.0337352 -2.2072895,0.01601326 8.7185884,-4.0017078 c -1.7454984,2.3720609 -1.7354408,5.6174519 -6e-7,8.035443 z"
         style="fill:#0000ff;fill-rule:evenodd;stroke:#0000ff;stroke-width:0.625;stroke-linejoin:round"
         id="path5088" />
    </marker>
    <marker
       style="overflow:visible"
       id="Arrow2Mendd-0"
       refX="0"
       refY="0"
       orient="auto"
       inkscape:stockid="Arrow2Mendd">
      <path
         transform="scale(-0.6,-0.6)"
         d="M 8.7185878,4.0337352 -2.2072895,0.01601326 8.7185884,-4.0017078 c -1.7454984,2.3720609 -1.7354408,5.6174519 -6e-7,8.035443 z"
         style="fill:#0000ff;fill-rule:evenodd;stroke:#0000ff;stroke-width:0.625;stroke-linejoin:round"
         id="path5088-9"
         inkscape:connector-curvature="0" />
    </marker>
    <marker
       style="overflow:visible"
       id="Arrow2Mendd-6"
       refX="0"
       refY="0"
       orient="auto"
       inkscape:stockid="Arrow2Mendd">
      <path
         transform="scale(-0.6,-0.6)"
         d="M 8.7185878,4.0337352 -2.2072895,0.01601326 8.7185884,-4.0017078 c -1.7454984,2.3720609 -1.7354408,5.6174519 -6e-7,8.035443 z"
         style="fill:#0000ff;fill-rule:evenodd;stroke:#0000ff;stroke-width:0.625;stroke-linejoin:round"
         id="path5088-7"
         inkscape:connector-curvature="0" />
    </marker>
    <marker
       style="overflow:visible"
       id="Arrow2Menddn"
       refX="0"
       refY="0"
       orient="auto"
       inkscape:stockid="Arrow2Menddn">
      <path
         inkscape:connector-curvature="0"
         transform="scale(-0.6,-0.6)"
         d="M 8.7185878,4.0337352 -2.2072895,0.01601326 8.7185884,-4.0017078 c -1.7454984,2.3720609 -1.7354408,5.6174519 -6e-7,8.035443 z"
         style="fill:#c00000;fill-rule:evenodd;stroke:#c00000;stroke-width:0.625;stroke-linejoin:round"
         id="path5233" />
    </marker>
    <marker
       style="overflow:visible"
       id="Arrow2Menddx"
       refX="0"
       refY="0"
       orient="auto"
       inkscape:stockid="Arrow2Menddx">
      <path
         inkscape:connector-curvature="0"
         transform="scale(-0.6,-0.6)"
         d="M 8.7185878,4.0337352 -2.2072895,0.01601326 8.7185884,-4.0017078 c -1.7454984,2.3720609 -1.7354408,5.6174519 -6e-7,8.035443 z"
         style="fill:#00c000;fill-rule:evenodd;stroke:#00c000;stroke-width:0.625;stroke-linejoin:round"
         id="path5236" />
    </marker>
    <marker
       style="overflow:visible"
       id="Arrow2MenddF"
       refX="0"
       refY="0"
       orient="auto"
       inkscape:stockid="Arrow2MenddF">
      <path
         inkscape:connector-curvature="0"
         transform="scale(-0.6,-0.6)"
         d="M 8.7185878,4.0337352 -2.2072895,0.01601326 8.7185884,-4.0017078 c -1.7454984,2.3720609 -1.7354408,5.6174519 -6e-7,8.035443 z"
         style="fill:#00c000;fill-rule:evenodd;stroke:#00c000;stroke-width:0.625;stroke-linejoin:round"
         id="path5239" />
    </marker>
    <marker
       style="overflow:visible"
       id="Arrow2MenddF-7"
       refX="0"
       refY="0"
       orient="auto"
       inkscape:stockid="Arrow2MenddF">
      <path
         inkscape:connector-curvature="0"
         transform="scale(-0.6,-0.6)"
         d="M 8.7185878,4.0337352 -2.2072895,0.01601326 8.7185884,-4.0017078 c -1.7454984,2.3720609 -1.7354408,5.6174519 -6e-7,8.035443 z"
         style="fill:#00c000;fill-rule:evenodd;stroke:#00c000;stroke-width:0.625;stroke-linejoin:round"
         id="path5239-3" />
    </marker>
    <marker
       style="overflow:visible"
       id="Arrow2Menddn-7"
       refX="0"
       refY="0"
       orient="auto"
       inkscape:stockid="Arrow2Menddn">
      <path
         inkscape:connector-curvature="0"
         transform="scale(-0.6,-0.6)"
         d="M 8.7185878,4.0337352 -2.2072895,0.01601326 8.7185884,-4.0017078 c -1.7454984,2.3720609 -1.7354408,5.6174519 -6e-7,8.035443 z"
         style="fill:#c00000;fill-rule:evenodd;stroke:#c00000;stroke-width:0.625;stroke-linejoin:round"
         id="path5233-3" />
    </marker>
    <marker
       style="overflow:visible"
       id="Arrow2MenddF-8"
       refX="0"
       refY="0"
       orient="auto"
       inkscape:stockid="Arrow2MenddF">
      <path
         inkscape:connector-curvature="0"
         transform="scale(-0.6,-0.6)"
         d="M 8.7185878,4.0337352 -2.2072895,0.01601326 8.7185884,-4.0017078 c -1.7454984,2.3720609 -1.7354408,5.6174519 -6e-7,8.035443 z"
         style="fill:#00c000;fill-rule:evenodd;stroke:#00c000;stroke-width:0.625;stroke-linejoin:round"
         id="path5239-7" />
    </marker>
    <marker
       style="overflow:visible"
       id="Arrow2Menddn-1"
       refX="0"
       refY="0"
       orient="auto"
       inkscape:stockid="Arrow2Menddn">
      <path
         inkscape:connector-curvature="0"
         transform="scale(-0.6,-0.6)"
         d="M 8.7185878,4.0337352 -2.2072895,0.01601326 8.7185884,-4.0017078 c -1.7454984,2.3720609 -1.7354408,5.6174519 -6e-7,8.035443 z"
         style="fill:#c00000;fill-rule:evenodd;stroke:#c00000;stroke-width:0.625;stroke-linejoin:round"
         id="path5233-2" />
    </marker>
    <marker
       inkscape:stockid="StopLI"
       orient="auto"
       refY="0"
       refX="0"
       id="StopLI"
       style="overflow:visible">
      <path
         inkscape:connector-curvature="0"
         id="path6160"
         d="M 0,5.65 0,-5.65"
         style="fill:none;stroke:#00c000;stroke-width:1pt"
         transform="scale(0.8,0.8)" />
    </marker>
    <marker
       style="overflow:visible"
       id="Arrow2MenddF-9"
       refX="0"
       refY="0"
       orient="auto"
       inkscape:stockid="Arrow2MenddF">
      <path
         transform="scale(-0.6,-0.6)"
         d="M 8.7185878,4.0337352 -2.2072895,0.01601326 8.7185884,-4.0017078 c -1.7454984,2.3720609 -1.7354408,5.6174519 -6e-7,8.035443 z"
         style="fill:#00c000;fill-rule:evenodd;stroke:#00c000;stroke-width:0.625;stroke-linejoin:round"
         id="path5239-71"
         inkscape:connector-curvature="0" />
    </marker>
    <marker
       style="overflow:visible"
       id="Arrow2MenddF-0"
       refX="0"
       refY="0"
       orient="auto"
       inkscape:stockid="Arrow2MenddF">
      <path
         transform="scale(-0.6,-0.6)"
         d="M 8.7185878,4.0337352 -2.2072895,0.01601326 8.7185884,-4.0017078 c -1.7454984,2.3720609 -1.7354408,5.6174519 -6e-7,8.035443 z"
         style="fill:#00c000;fill-rule:evenodd;stroke:#00c000;stroke-width:0.625;stroke-linejoin:round"
         id="path5239-8"
         inkscape:connector-curvature="0" />
    </marker>
    <marker
       style="overflow:visible"
       id="Arrow2MenddF-1"
       refX="0"
       refY="0"
       orient="auto"
       inkscape:stockid="Arrow2MenddF">
      <path
         transform="scale(-0.6,-0.6)"
         d="M 8.7185878,4.0337352 -2.2072895,0.01601326 8.7185884,-4.0017078 c -1.7454984,2.3720609 -1.7354408,5.6174519 -6e-7,8.035443 z"
         style="fill:#00c000;fill-rule:evenodd;stroke:#00c000;stroke-width:0.625;stroke-linejoin:round"
         id="path5239-4"
         inkscape:connector-curvature="0" />
    </marker>
    <marker
       style="overflow:visible"
       id="Arrow2MenddF-4"
       refX="0"
       refY="0"
       orient="auto"
       inkscape:stockid="Arrow2MenddF">
      <path
         transform="scale(-0.6,-0.6)"
         d="M 8.7185878,4.0337352 -2.2072895,0.01601326 8.7185884,-4.0017078 c -1.7454984,2.3720609 -1.7354408,5.6174519 -6e-7,8.035443 z"
         style="fill:#00c000;fill-rule:evenodd;stroke:#00c000;stroke-width:0.625;stroke-linejoin:round"
         id="path5239-5"
         inkscape:connector-curvature="0" />
    </marker>
    <marker
       style="overflow:visible"
       id="Arrow2Menddn-8"
       refX="0"
       refY="0"
       orient="auto"
       inkscape:stockid="Arrow2Menddn">
      <path
         inkscape:connector-curvature="0"
         transform="scale(-0.6,-0.6)"
         d="M 8.7185878,4.0337352 -2.2072895,0.01601326 8.7185884,-4.0017078 c -1.7454984,2.3720609 -1.7354408,5.6174519 -6e-7,8.035443 z"
         style="fill:#c00000;fill-rule:evenodd;stroke:#c00000;stroke-width:0.625;stroke-linejoin:round"
         id="path5233-1" />
    </marker>
    <marker
       style="overflow:visible"
       id="Arrow2MenddF-47"
       refX="0"
       refY="0"
       orient="auto"
       inkscape:stockid="Arrow2MenddF">
      <path
         inkscape:connector-curvature="0"
         transform="scale(-0.6,-0.6)"
         d="M 8.7185878,4.0337352 -2.2072895,0.01601326 8.7185884,-4.0017078 c -1.7454984,2.3720609 -1.7354408,5.6174519 -6e-7,8.035443 z"
         style="fill:#00c000;fill-rule:evenodd;stroke:#00c000;stroke-width:0.625;stroke-linejoin:round"
         id="path5239-6" />
    </marker>
    <marker
       style="overflow:visible"
       id="Arrow2Menddx-6"
       refX="0"
       refY="0"
       orient="auto"
       inkscape:stockid="Arrow2Menddx">
      <path
         inkscape:connector-curvature="0"
         transform="scale(-0.6,-0.6)"
         d="M 8.7185878,4.0337352 -2.2072895,0.01601326 8.7185884,-4.0017078 c -1.7454984,2.3720609 -1.7354408,5.6174519 -6e-7,8.035443 z"
         style="fill:#00c000;fill-rule:evenodd;stroke:#00c000;stroke-width:0.625;stroke-linejoin:round"
         id="path5236-7" />
    </marker>
    <marker
       style="overflow:visible"
       id="Arrow2MenddF-2"
       refX="0"
       refY="0"
       orient="auto"
       inkscape:stockid="Arrow2MenddF">
      <path
         inkscape:connector-curvature="0"
         transform="scale(-0.6,-0.6)"
         d="M 8.7185878,4.0337352 -2.2072895,0.01601326 8.7185884,-4.0017078 c -1.7454984,2.3720609 -1.7354408,5.6174519 -6e-7,8.035443 z"
         style="fill:#00c000;fill-rule:evenodd;stroke:#00c000;stroke-width:0.625;stroke-linejoin:round"
         id="path5239-48" />
    </marker>
    <marker
       style="overflow:visible"
       id="Arrow2Menddn-17"
       refX="0"
       refY="0"
       orient="auto"
       inkscape:stockid="Arrow2Menddn">
      <path
         inkscape:connector-curvature="0"
         transform="scale(-0.6,-0.6)"
         d="M 8.7185878,4.0337352 -2.2072895,0.01601326 8.7185884,-4.0017078 c -1.7454984,2.3720609 -1.7354408,5.6174519 -6e-7,8.035443 z"
         style="fill:#c00000;fill-rule:evenodd;stroke:#c00000;stroke-width:0.625;stroke-linejoin:round"
         id="path5233-6" />
    </marker>
    <marker
       style="overflow:visible"
       id="Arrow2MenddF-6"
       refX="0"
       refY="0"
       orient="auto"
       inkscape:stockid="Arrow2MenddF">
      <path
         inkscape:connector-curvature="0"
         transform="scale(-0.6,-0.6)"
         d="M 8.7185878,4.0337352 -2.2072895,0.01601326 8.7185884,-4.0017078 c -1.7454984,2.3720609 -1.7354408,5.6174519 -6e-7,8.035443 z"
         style="fill:#00c000;fill-rule:evenodd;stroke:#00c000;stroke-width:0.625;stroke-linejoin:round"
         id="path5239-54" />
    </marker>
    <marker
       style="overflow:visible"
       id="Arrow2Menddn-0"
       refX="0"
       refY="0"
       orient="auto"
       inkscape:stockid="Arrow2Menddn">
      <path
         inkscape:connector-curvature="0"
         transform="scale(-0.6,-0.6)"
         d="M 8.7185878,4.0337352 -2.2072895,0.01601326 8.7185884,-4.0017078 c -1.7454984,2.3720609 -1.7354408,5.6174519 -6e-7,8.035443 z"
         style="fill:#c00000;fill-rule:evenodd;stroke:#c00000;stroke-width:0.625;stroke-linejoin:round"
         id="path5233-69" />
    </marker>
    <marker
       style="overflow:visible"
       id="marker4741"
       refX="0"
       refY="0"
       orient="auto"
       inkscape:stockid="Arrow2Menddn">
      <path
         inkscape:connector-curvature="0"
         transform="scale(-0.6,-0.6)"
         d="M 8.7185878,4.0337352 -2.2072895,0.01601326 8.7185884,-4.0017078 c -1.7454984,2.3720609 -1.7354408,5.6174519 -6e-7,8.035443 z"
         style="fill:#c00000;fill-rule:evenodd;stroke:#c00000;stroke-width:0.625;stroke-linejoin:round"
         id="path4743" />
    </marker>
    <marker
       style="overflow:visible"
       id="Arrow2MenddF-3"
       refX="0"
       refY="0"
       orient="auto"
       inkscape:stockid="Arrow2MenddF">
      <path
         inkscape:connector-curvature="0"
         transform="scale(-0.6,-0.6)"
         d="M 8.7185878,4.0337352 -2.2072895,0.01601326 8.7185884,-4.0017078 c -1.7454984,2.3720609 -1.7354408,5.6174519 -6e-7,8.035443 z"
         style="fill:#00c000;fill-rule:evenodd;stroke:#00c000;stroke-width:0.625;stroke-linejoin:round"
         id="path5239-72" />
    </marker>
    <marker
       style="overflow:visible"
       id="Arrow2MenddF-39"
       refX="0"
       refY="0"
       orient="auto"
       inkscape:stockid="Arrow2MenddF">
      <path
         inkscape:connector-curvature="0"
         transform="scale(-0.6,-0.6)"
         d="M 8.7185878,4.0337352 -2.2072895,0.01601326 8.7185884,-4.0017078 c -1.7454984,2.3720609 -1.7354408,5.6174519 -6e-7,8.035443 z"
         style="fill:#00c000;fill-rule:evenodd;stroke:#00c000;stroke-width:0.625;stroke-linejoin:round"
         id="path5239-88" />
    </marker>
    <marker
       style="overflow:visible"
       id="Arrow2MenddF-43"
       refX="0"
       refY="0"
       orient="auto"
       inkscape:stockid="Arrow2MenddF">
      <path
         inkscape:connector-curvature="0"
         transform="scale(-0.6,-0.6)"
         d="M 8.7185878,4.0337352 -2.2072895,0.01601326 8.7185884,-4.0017078 c -1.7454984,2.3720609 -1.7354408,5.6174519 -6e-7,8.035443 z"
         style="fill:#00c000;fill-rule:evenodd;stroke:#00c000;stroke-width:0.625;stroke-linejoin:round"
         id="path5239-76" />
    </marker>
    <marker
       style="overflow:visible"
       id="Arrow2MenddF-15"
       refX="0"
       refY="0"
       orient="auto"
       inkscape:stockid="Arrow2MenddF">
      <path
         inkscape:connector-curvature="0"
         transform="scale(-0.6,-0.6)"
         d="M 8.7185878,4.0337352 -2.2072895,0.01601326 8.7185884,-4.0017078 c -1.7454984,2.3720609 -1.7354408,5.6174519 -6e-7,8.035443 z"
         style="fill:#00c000;fill-rule:evenodd;stroke:#00c000;stroke-width:0.625;stroke-linejoin:round"
         id="path5239-883" />
    </marker>
    <marker
       style="overflow:visible"
       id="Arrow2MenddF-27"
       refX="0"
       refY="0"
       orient="auto"
       inkscape:stockid="Arrow2MenddF">
      <path
         inkscape:connector-curvature="0"
         transform="scale(-0.6,-0.6)"
         d="M 8.7185878,4.0337352 -2.2072895,0.01601326 8.7185884,-4.0017078 c -1.7454984,2.3720609 -1.7354408,5.6174519 -6e-7,8.035443 z"
         style="fill:#00c000;fill-rule:evenodd;stroke:#00c000;stroke-width:0.625;stroke-linejoin:round"
         id="path5239-36" />
    </marker>
    <marker
       style="overflow:visible"
       id="Arrow2MenddF-21"
       refX="0"
       refY="0"
       orient="auto"
       inkscape:stockid="Arrow2MenddF">
      <path
         inkscape:connector-curvature="0"
         transform="scale(-0.6,-0.6)"
         d="M 8.7185878,4.0337352 -2.2072895,0.01601326 8.7185884,-4.0017078 c -1.7454984,2.3720609 -1.7354408,5.6174519 -6e-7,8.035443 z"
         style="fill:#00c000;fill-rule:evenodd;stroke:#00c000;stroke-width:0.625;stroke-linejoin:round"
         id="path5239-2" />
    </marker>
    <marker
       style="overflow:visible"
       id="Arrow2MenddF-92"
       refX="0"
       refY="0"
       orient="auto"
       inkscape:stockid="Arrow2MenddF">
      <path
         inkscape:connector-curvature="0"
         transform="scale(-0.6,-0.6)"
         d="M 8.7185878,4.0337352 -2.2072895,0.01601326 8.7185884,-4.0017078 c -1.7454984,2.3720609 -1.7354408,5.6174519 -6e-7,8.035443 z"
         style="fill:#00c000;fill-rule:evenodd;stroke:#00c000;stroke-width:0.625;stroke-linejoin:round"
         id="path5239-78" />
    </marker>
    <marker
       style="overflow:visible"
       id="Arrow2MenddF-14"
       refX="0"
       refY="0"
       orient="auto"
       inkscape:stockid="Arrow2MenddF">
      <path
         inkscape:connector-curvature="0"
         transform="scale(-0.6,-0.6)"
         d="M 8.7185878,4.0337352 -2.2072895,0.01601326 8.7185884,-4.0017078 c -1.7454984,2.3720609 -1.7354408,5.6174519 -6e-7,8.035443 z"
         style="fill:#00c000;fill-rule:evenodd;stroke:#00c000;stroke-width:0.625;stroke-linejoin:round"
         id="path5239-52" />
    </marker>
    <marker
       style="overflow:visible"
       id="Arrow2MenddF-155"
       refX="0"
       refY="0"
       orient="auto"
       inkscape:stockid="Arrow2MenddF">
      <path
         inkscape:connector-curvature="0"
         transform="scale(-0.6,-0.6)"
         d="M 8.7185878,4.0337352 -2.2072895,0.01601326 8.7185884,-4.0017078 c -1.7454984,2.3720609 -1.7354408,5.6174519 -6e-7,8.035443 z"
         style="fill:#00c000;fill-rule:evenodd;stroke:#00c000;stroke-width:0.625;stroke-linejoin:round"
         id="path5239-1" />
    </marker>
    <marker
       style="overflow:visible"
       id="marker6064"
       refX="0"
       refY="0"
       orient="auto"
       inkscape:stockid="Arrow2MenddF">
      <path
         inkscape:connector-curvature="0"
         transform="scale(-0.6,-0.6)"
         d="M 8.7185878,4.0337352 -2.2072895,0.01601326 8.7185884,-4.0017078 c -1.7454984,2.3720609 -1.7354408,5.6174519 -6e-7,8.035443 z"
         style="fill:#00c000;fill-rule:evenodd;stroke:#00c000;stroke-width:0.625;stroke-linejoin:round"
         id="path6066" />
    </marker>
    <marker
       style="overflow:visible"
       id="Arrow2Menddx-8"
       refX="0"
       refY="0"
       orient="auto"
       inkscape:stockid="Arrow2Menddx">
      <path
         inkscape:connector-curvature="0"
         transform="scale(-0.6,-0.6)"
         d="M 8.7185878,4.0337352 -2.2072895,0.01601326 8.7185884,-4.0017078 c -1.7454984,2.3720609 -1.7354408,5.6174519 -6e-7,8.035443 z"
         style="fill:#00c000;fill-rule:evenodd;stroke:#00c000;stroke-width:0.625;stroke-linejoin:round"
         id="path5236-4" />
    </marker>
    <marker
       style="overflow:visible"
       id="Arrow2MenddF-68"
       refX="0"
       refY="0"
       orient="auto"
       inkscape:stockid="Arrow2MenddF">
      <path
         inkscape:connector-curvature="0"
         transform="scale(-0.6,-0.6)"
         d="M 8.7185878,4.0337352 -2.2072895,0.01601326 8.7185884,-4.0017078 c -1.7454984,2.3720609 -1.7354408,5.6174519 -6e-7,8.035443 z"
         style="fill:#00c000;fill-rule:evenodd;stroke:#00c000;stroke-width:0.625;stroke-linejoin:round"
         id="path5239-44" />
    </marker>
    <marker
       style="overflow:visible"
       id="marker6064-2"
       refX="0"
       refY="0"
       orient="auto"
       inkscape:stockid="Arrow2MenddF">
      <path
         inkscape:connector-curvature="0"
         transform="scale(-0.6,-0.6)"
         d="M 8.7185878,4.0337352 -2.2072895,0.01601326 8.7185884,-4.0017078 c -1.7454984,2.3720609 -1.7354408,5.6174519 -6e-7,8.035443 z"
         style="fill:#00c000;fill-rule:evenodd;stroke:#00c000;stroke-width:0.625;stroke-linejoin:round"
         id="path6066-8" />
    </marker>
    <marker
       style="overflow:visible"
       id="Arrow2Menddx-1"
       refX="0"
       refY="0"
       orient="auto"
       inkscape:stockid="Arrow2Menddx">
      <path
         inkscape:connector-curvature="0"
         transform="scale(-0.6,-0.6)"
         d="M 8.7185878,4.0337352 -2.2072895,0.01601326 8.7185884,-4.0017078 c -1.7454984,2.3720609 -1.7354408,5.6174519 -6e-7,8.035443 z"
         style="fill:#00c000;fill-rule:evenodd;stroke:#00c000;stroke-width:0.625;stroke-linejoin:round"
         id="path5236-6" />
    </marker>
    <marker
       style="overflow:visible"
       id="Arrow2MenddF-23"
       refX="0"
       refY="0"
       orient="auto"
       inkscape:stockid="Arrow2MenddF">
      <path
         inkscape:connector-curvature="0"
         transform="scale(-0.6,-0.6)"
         d="M 8.7185878,4.0337352 -2.2072895,0.01601326 8.7185884,-4.0017078 c -1.7454984,2.3720609 -1.7354408,5.6174519 -6e-7,8.035443 z"
         style="fill:#00c000;fill-rule:evenodd;stroke:#00c000;stroke-width:0.625;stroke-linejoin:round"
         id="path5239-0" />
    </marker>
    <marker
       style="overflow:visible"
       id="Arrow2MenddxQ"
       refX="0"
       refY="0"
       orient="auto"
       inkscape:stockid="Arrow2MenddxQ">
      <path
         inkscape:connector-curvature="0"
         transform="scale(-0.6,-0.6)"
         d="M 8.7185878,4.0337352 -2.2072895,0.01601326 8.7185884,-4.0017078 c -1.7454984,2.3720609 -1.7354408,5.6174519 -6e-7,8.035443 z"
         style="fill:#000000;fill-rule:evenodd;stroke:#000000;stroke-width:0.625;stroke-linejoin:round"
         id="path6857" />
    </marker>
    <marker
       style="overflow:visible"
       id="Arrow2MenddxQ-4"
       refX="0"
       refY="0"
       orient="auto"
       inkscape:stockid="Arrow2MenddxQ">
      <path
         inkscape:connector-curvature="0"
         transform="scale(-0.6,-0.6)"
         d="M 8.7185878,4.0337352 -2.2072895,0.01601326 8.7185884,-4.0017078 c -1.7454984,2.3720609 -1.7354408,5.6174519 -6e-7,8.035443 z"
         style="fill:#000000;fill-rule:evenodd;stroke:#000000;stroke-width:0.625;stroke-linejoin:round"
         id="path6857-3" />
    </marker>
    <marker
       style="overflow:visible"
       id="Arrow2MenddxQ-42"
       refX="0"
       refY="0"
       orient="auto"
       inkscape:stockid="Arrow2MenddxQ">
      <path
         inkscape:connector-curvature="0"
         transform="scale(-0.6,-0.6)"
         d="M 8.7185878,4.0337352 -2.2072895,0.01601326 8.7185884,-4.0017078 c -1.7454984,2.3720609 -1.7354408,5.6174519 -6e-7,8.035443 z"
         style="fill:#000000;fill-rule:evenodd;stroke:#000000;stroke-width:0.625;stroke-linejoin:round"
         id="path6857-8" />
    </marker>
    <marker
       style="overflow:visible"
       id="Arrow2MenddxQ-3"
       refX="0"
       refY="0"
       orient="auto"
       inkscape:stockid="Arrow2MenddxQ">
      <path
         inkscape:connector-curvature="0"
         transform="scale(-0.6,-0.6)"
         d="M 8.7185878,4.0337352 -2.2072895,0.01601326 8.7185884,-4.0017078 c -1.7454984,2.3720609 -1.7354408,5.6174519 -6e-7,8.035443 z"
         style="fill:#000000;fill-rule:evenodd;stroke:#000000;stroke-width:0.625;stroke-linejoin:round"
         id="path6857-7" />
    </marker>
  </defs>
  <metadata
     id="metadata7">
    <rdf:RDF>
      <cc:Work
         rdf:about="">
        <dc:format>image/svg+xml</dc:format>
        <dc:type
           rdf:resource="http://purl.org/dc/dcmitype/StillImage" />
        <dc:title></dc:title>
      </cc:Work>
    </rdf:RDF>
  </metadata>
  <g
     style="display:inline"
     inkscape:label="base"
     inkscape:groupmode="layer"
     id="layer1"
     transform="translate(-111.131,-789.96212)">
    <path
       style="fill:#c1f4ff;fill-opacity:1;stroke:#009ec0;stroke-width:1;stroke-linecap:butt;stroke-linejoin:round;stroke-miterlimit:4;stroke-opacity:1;stroke-dashoffset:0"
       d="m 144,828.36212 112,0 c 8.864,0 16,7.136 16,16 l 0,2e-5 c 0,8.864 -7.136,16 -16,16 -8,0 -16,40 -24,40 l -16,0 c -8,0 -16,-40 -24,-40 l -48,0 c -8.864,0 -16,-7.136 -16,-16 l 0,-2e-5 c 0,-8.864 7.136,-16 16,-16 z"
       id="rect7518"
       inkscape:connector-curvature="0"
       sodipodi:nodetypes="ssssccccssss" />
    <text
       xml:space="preserve"
       style="font-size:32px;font-style:normal;font-variant:normal;font-weight:normal;font-stretch:normal;text-align:center;line-height:110.00000238%;letter-spacing:0px;word-spacing:0px;writing-mode:lr-tb;text-anchor:middle;fill:#000000;fill-opacity:1;stroke:none;font-family:Fira Sans;-inkscape-font-specification:Fira Sans"
       x="176"
       y="892.36212"
       id="text2987-6-5"
       sodipodi:linespacing="110%"><tspan
         style="font-size:32px;font-style:normal;font-variant:normal;font-weight:normal;font-stretch:normal;text-align:center;line-height:110.00000238%;writing-mode:lr-tb;text-anchor:middle;font-family:Fira Sans;-inkscape-font-specification:Fira Sans"
         sodipodi:role="line"
         x="176"
         y="892.36212"
         id="tspan3940-3">B</tspan></text>
    <text
       xml:space="preserve"
       style="font-size:32px;font-style:normal;font-variant:normal;font-weight:normal;font-stretch:normal;text-align:center;line-height:110.00000238%;letter-spacing:0px;word-spacing:0px;writing-mode:lr-tb;text-anchor:middle;fill:#000000;fill-opacity:1;stroke:none;display:inline;font-family:Fira Sans;-inkscape-font-specification:Fira Sans"
       x="120"
       y="812.36212"
       id="text2987-6-5-8"
       sodipodi:linespacing="110%"><tspan
         style="font-size:32px;font-style:normal;font-variant:normal;font-weight:normal;font-stretch:normal;text-align:center;line-height:110.00000238%;writing-mode:lr-tb;text-anchor:middle;font-family:Fira Sans;-inkscape-font-specification:Fira Sans"
         sodipodi:role="line"
         x="120"
         y="812.36212"
         id="tspan3940-3-66">A</tspan></text>
    <text
       xml:space="preserve"
       style="font-size:32px;font-style:normal;font-variant:normal;font-weight:normal;font-stretch:normal;text-align:center;line-height:110.00000238%;letter-spacing:0px;word-spacing:0px;writing-mode:lr-tb;text-anchor:middle;fill:#000000;fill-opacity:1;stroke:none;display:inline;font-family:Fira Sans;-inkscape-font-specification:Fira Sans"
       x="216"
       y="812.36212"
       id="text2987-6-5-8-1"
       sodipodi:linespacing="110%"><tspan
         style="font-size:32px;font-style:normal;font-variant:normal;font-weight:normal;font-stretch:normal;text-align:center;line-height:110.00000238%;writing-mode:lr-tb;text-anchor:middle;font-family:Fira Sans;-inkscape-font-specification:Fira Sans"
         sodipodi:role="line"
         x="216"
         y="812.36212"
         id="tspan3940-3-66-7">C</tspan></text>
    <text
       xml:space="preserve"
       style="font-size:32px;font-style:normal;font-variant:normal;font-weight:normal;font-stretch:normal;text-align:center;line-height:110.00000238%;letter-spacing:0px;word-spacing:0px;writing-mode:lr-tb;text-anchor:middle;fill:#000000;fill-opacity:1;stroke:none;display:inline;font-family:Fira Sans;-inkscape-font-specification:Fira Sans"
       x="272"
       y="892.36212"
       id="text2987-6-5-8-1-5"
       sodipodi:linespacing="110%"><tspan
         style="font-size:32px;font-style:normal;font-variant:normal;font-weight:normal;font-stretch:normal;text-align:center;line-height:110.00000238%;writing-mode:lr-tb;text-anchor:middle;font-family:Fira Sans;-inkscape-font-specification:Fira Sans"
         sodipodi:role="line"
         x="272"
         y="892.36212"
         id="tspan3940-3-66-7-7">D</tspan></text>
    <path
       style="fill:none;stroke:#000000;stroke-width:2;stroke-linecap:butt;stroke-linejoin:miter;stroke-miterlimit:4;stroke-opacity:1;stroke-dasharray:none"
       d="m 184,868.36214 24,-48"
       id="path7374"
       inkscape:connector-curvature="0"
       sodipodi:nodetypes="cc" />
    <path
       style="fill:none;stroke:#000000;stroke-width:2;stroke-linecap:butt;stroke-linejoin:miter;stroke-miterlimit:4;stroke-opacity:1;stroke-dasharray:none"
       d="m 168,868.36214 -40,-48"
       id="path7376"
       inkscape:connector-curvature="0"
       sodipodi:nodetypes="cc" />
    <path
       style="fill:none;stroke:#000000;stroke-width:2;stroke-linecap:butt;stroke-linejoin:miter;stroke-miterlimit:4;stroke-opacity:1;stroke-dasharray:none"
       d="m 168,206.01596 64,0"
       id="path7378"
       inkscape:connector-curvature="0"
       transform="translate(24,678.34618)"
       sodipodi:nodetypes="cc" />
    <path
       style="fill:none;stroke:#000000;stroke-width:2;stroke-linecap:butt;stroke-linejoin:miter;stroke-miterlimit:4;stroke-opacity:1;stroke-dasharray:none;display:inline"
       d="m 256,868.36214 -24,-48"
       id="path7374-2"
       inkscape:connector-curvature="0"
       sodipodi:nodetypes="cc" />
  </g>
</svg>
